{
.appVersion = "3310";
.formatVersion = 3;
DisplayStrings = (
"Musiala
Schürrle
Mbappé",
"FUckÄ
UEFAVerY",
"",
HLH,
"“”‘’",
"/S.ss01/Z.ss01",
"H→H",
"(){H//H}HH[H]H",
"/pixel/pixel.d1/pixel.d2/pixel.d3/pixel.d4/pixel.hair/pixel.w1/pixel.w2/pixel.w3/pixel.w4/pixel.hair.accent/pixel.hair.bottom/pixel.hair.top"
);
axes = (
{
hidden = 1;
name = Weight;
tag = wght;
},
{
name = Legibility;
tag = LGBT;
},
{
hidden = 1;
name = "Thick Stroke";
tag = xopq;
},
{
hidden = 1;
name = "Thin Stroke";
tag = yopq;
}
);
customParameters = (
{
name = "Virtual Master";
value = (
{
Axis = Weight;
Location = 400;
},
{
Axis = Legibility;
Location = 100;
},
{
Axis = "Thick Stroke";
Location = 100;
},
{
Axis = "Thin Stroke";
Location = 100;
}
);
},
{
name = "Virtual Master";
value = (
{
Axis = Weight;
Location = 400;
},
{
Axis = Legibility;
Location = 100;
},
{
Axis = "Thick Stroke";
Location = 100;
},
{
Axis = "Thin Stroke";
Location = 25;
}
);
},
{
name = "Use Typo Metrics";
value = 1;
},
{
name = "Variable Font Origin";
value = "483A4B3C-018A-49B6-8662-B0C36EA930DB";
},
{
name = "Has WWS Names";
value = 1;
},
{
name = "Write lastChange";
value = 0;
},
{
name = de.kutilek.corretto.active;
value = "1";
},
{
name = de.kutilek.corretto.gasp;
value = "65535: gSgS";
},
{
disabled = 1;
name = de.kutilek.corretto.webfonts;
value = "woff2 ttx";
},
{
name = fsType;
value = (
);
},
{
name = "Export Mac Name Table Entries";
value = 0;
}
);
date = "2024-06-20 15:22:39 +0000";
familyName = "Soccer Sans";
featurePrefixes = (
{
automatic = 1;
code = "languagesystem DFLT dflt;

languagesystem latn dflt;
languagesystem latn AZE;
languagesystem latn CRT;
languagesystem latn KAZ;
languagesystem latn TAT;
languagesystem latn TRK;
languagesystem latn ROM;
languagesystem latn MOL;
languagesystem latn NLD;
";
name = Languagesystems;
}
);
features = (
{
automatic = 1;
code = "feature locl;
feature ss01;
feature cv01;
";
tag = aalt;
},
{
automatic = 1;
code = "lookup ccmp_DFLT_1 {

glyphs = (
{
glyphname = S;
layers = (
{
anchors = (
{
name = bottom;
pos = (226,0);
},
{
name = top;
pos = (226,700);
}
);
layerId = "483A4B3C-018A-49B6-8662-B0C36EA930DB";
shapes = (
{
closed = 1;
nodes = (
(300,0,l),
(300,100,l),
(400,100,l),
(400,300,l),
(300,300,l),
(300,400,l),
(150,400,l),
(150,600,l),
(400,600,l),
(400,700,l),
(150,700,l),
(150,600,l),
(50,600,l),
(50,400,l),
(150,400,l),
(150,300,l),
(300,300,l),
(300,100,l),
(50,100,l),
(50,0,l)
);
},
{
pos = (50,600);
ref = pixel.d1;
},
{
pos = (300,300);
ref = pixel.d2;
},
{
pos = (50,300);
ref = pixel.d4;
},
{
pos = (300,0);
ref = pixel.d3;
}
);
width = 450;
},
{
anchors = (
{
name = bottom;
pos = (226,0);
},
{
name = top;
pos = (226,700);
}
);
layerId = "209E5C5C-CC14-4F9C-9A7A-B403B00EF8BC";
shapes = (
{
closed = 1;
nodes = (
(300,0,l),
(300,100,l),
(400,100,l),
(400,275,l),
(300,275,l),
(300,375,l),
(150,375,l),
(150,675,l),
(400,675,l),
(400,700,l),
(150,700,l),
(150,600,l),
(50,600,l),
(50,450,l),
(150,450,l),
(150,350,l),
(300,350,l),
(300,25,l),
(50,25,l),
(50,0,l)
);
},
{
pos = (50,600);
ref = pixel.d1;
},
{
pos = (300,275);
ref = pixel.d2;
},
{
pos = (50,350);
ref = pixel.d4;
},
{
pos = (300,0);
ref = pixel.d3;
}
);
width = 450;
}
);
unicode = (83,115);
},
{
glyphname = T;
kernLeft = T;
kernRight = T;
layers = (
{
anchors = (
{
name = bottom;
pos = (226,0);
},
{
name = center;
pos = (226,350);
},
{
name = top;
pos = (226,700);
}
);
layerId = "483A4B3C-018A-49B6-8662-B0C36EA930DB";
shapes = (
{
closed = 1;
nodes = (
(276,0,l),
(276,600,l),
(426,600,l),
(426,700,l),
(26,700,l),
(26,600,l),
(176,600,l),
(176,0,l)
);
}
);
width = 452;
},
{
anchors = (
{
name = bottom;
pos = (226,0);
},
{
name = center;
pos = (226,350);
},
{
name = top;
pos = (226,700);
}
);
layerId = "209E5C5C-CC14-4F9C-9A7A-B403B00EF8BC";
shapes = (
{
closed = 1;
nodes = (
(276,0,l),
(275,675,l),
(425,675,l),
(426,700,l),
(26,700,l),
(25,675,l),
(175,675,l),
(176,0,l)
);
}
);
width = 452;
}
);
unicode = (84,116);
},
{
glyphname = Z;
layers = (
{
anchors = (
{
name = bottom;
pos = (226,0);
},
{
name = top;
pos = (226,700);
}
);
layerId = "483A4B3C-018A-49B6-8662-B0C36EA930DB";
shapes = (
{
closed = 1;
nodes = (
(400,0,l),
(400,100,l),
(150,100,l),
(150,300,l),
(300,300,l),
(300,400,l),
(400,400,l),
(400,700,l),
(50,700,l),
(50,600,l),
(300,600,l),
(300,400,l),
(150,400,l),
(150,300,l),
(50,300,l),
(50,0,l)
);
},
{
pos = (50,300);
ref = pixel.d1;
},
{
pos = (300,300);
ref = pixel.d3;
}
);
width = 450;
},
{
anchors = (
{
name = bottom;
pos = (226,0);
},
{
name = top;
pos = (226,700);
}
);
layerId = "209E5C5C-CC14-4F9C-9A7A-B403B00EF8BC";
shapes = (
{
closed = 1;
nodes = (
(400,0,l),
(400,25,l),
(150,25,l),
(150,350,l),
(300,350,l),
(300,450,l),
(400,450,l),
(400,700,l),
(50,700,l),
(50,675,l),
(300,675,l),
(300,375,l),
(150,375,l),
(150,275,l),
(50,275,l),
(50,0,l)
);
},
{
pos = (50,275);
ref = pixel.d1;
},
{
pos = (300,350);
ref = pixel.d3;
}
);
width = 450;
}
);
unicode = (90,122);
},
{
glyphname = S.ss01;
kernLeft = S1;
kernRight = S1;
layers = (
{
anchors = (
{
name = bottom;
pos = (225,0);
},
{
name = top;
pos = (225,700);
}
);
layerId = "483A4B3C-018A-49B6-8662-B0C36EA930DB";
shapes = (
{
closed = 1;
nodes = (
(400,0,l),
(400,0,l),
(400,100,l),
(163,600,l),
(400,600,l),
(400,700,l),
(50,700,l),
(50,700,l),
(50,600,l),
(288,100,l),
(50,100,l),
(50,0,l)
);
}
);
width = 450;
},
{
anchors = (
{
name = bottom;
pos = (225,0);
},
{
name = top;
pos = (225,700);
}
);
layerId = "209E5C5C-CC14-4F9C-9A7A-B403B00EF8BC";
shapes = (
{
closed = 1;
nodes = (
(400,0,l),
(400,0,l),
(400,25,l),
(156,675,l),
(400,675,l),
(400,700,l),
(50,700,l),
(50,700,l),
(50,675,l),
(294,25,l),
(50,25,l),
(50,0,l)
);
}
);
width = 450;
},
{
anchors = (
{
name = bottom;
pos = (225,0);
},
{
name = top;
pos = (225,700);
}
);
associatedMasterId = "483A4B3C-018A-49B6-8662-B0C36EA930DB";
attr = {
coordinates = (
400,
100,
100,
100
);
};
layerId = "DD26183E-7B5E-480F-945B-D8E81F232405";
name = "9. Jul 23 at 13:05";
shapes = (
{
closed = 1;
nodes = (
(350,0,l),
(400,50,l),
(400,100,l),
(163,600,l),
(400,600,l),
(400,700,l),
(100,700,l),
(50,650,l),
(50,600,l),
(288,100,l),
(50,100,l),
(50,0,l)
);
}
);
width = 450;
},
{
anchors = (
{
name = bottom;
pos = (225,0);
},
{
name = top;
pos = (225,700);
}
);
associatedMasterId = "209E5C5C-CC14-4F9C-9A7A-B403B00EF8BC";
attr = {
coordinates = (
400,
100,
100,
25
);
};
layerId = "D52896A4-31A3-4B21-8A59-9CD858270024";
name = "9. Jul 23 at 13:06";
shapes = (
{
closed = 1;
nodes = (
(375,0,l),
(400,25,l),
(400,25,l),
(156,675,l),
(400,675,l),
(400,700,l),
(75,700,l),
(50,675,l),
(50,675,l),
(294,25,l),
(50,25,l),
(50,0,l)
);
}
);
width = 450;
}
);
},
{
glyphname = Z.ss01;
kernLeft = Z1;
kernRight = Z1;
layers = (
{
anchors = (
{
name = bottom;
pos = (226,0);
},
{
name = top;
pos = (226,700);
}
);
layerId = "483A4B3C-018A-49B6-8662-B0C36EA930DB";
shapes = (
{
closed = 1;
nodes = (
(400,0,l),
(400,100,l),
(163,100,l),
(400,600,l),
(400,700,l),
(400,700,l),
(50,700,l),
(50,600,l),
(288,600,l),
(50,100,l),
(50,0,l),
(50,0,l)
);
}
);
width = 450;
},
{
anchors = (
{
name = bottom;
pos = (226,0);
},
{
name = top;
pos = (226,700);
}
);
layerId = "209E5C5C-CC14-4F9C-9A7A-B403B00EF8BC";
shapes = (
{
closed = 1;
nodes = (
(400,0,l),
(400,25,l),
(156,25,l),
(400,675,l),
(400,700,l),
(400,700,l),
(50,700,l),
(50,675,l),
(294,675,l),
(50,25,l),
(50,0,l),
(50,0,l)
);
}
);
width = 450;
},
{
anchors = (
{
name = bottom;
pos = (226,0);
},
{
name = top;
pos = (226,700);
}
);
associatedMasterId = "483A4B3C-018A-49B6-8662-B0C36EA930DB";
attr = {
coordinates = (
400,
100,
100,
100
);
};
layerId = "642D6AC2-F781-419F-B163-6F368BE114BA";
name = "9. Jul 23 at 13:07";
shapes = (
{
closed = 1;
nodes = (
(400,0,l),
(400,100,l),
(163,100,l),
(400,600,l),
(400,650,l),
(350,700,l),
(50,700,l),
(50,600,l),
(288,600,l),
(50,100,l),
(50,50,l),
(100,0,l)
);
}
);
width = 450;
},
{
anchors = (
{
name = bottom;
pos = (226,0);
},
{
name = top;
pos = (226,700);
}
);
associatedMasterId = "209E5C5C-CC14-4F9C-9A7A-B403B00EF8BC";
attr = {
coordinates = (
400,
100,
100,
25
);
};
layerId = "294ED036-198F-4FAC-B8DC-C7C191F7921F";
name = "9. Jul 23 at 13:07";
shapes = (
{
closed = 1;
nodes = (
(400,0,l),
(400,25,l),
(156,25,l),
(400,675,l),
(400,675,l),
(375,700,l),
(50,700,l),
(50,675,l),
(294,675,l),
(50,25,l),
(50,25,l),
(75,0,l)
);
}
);
width = 450;
}
);
},
{
glyphname = two;
layers = (
{
layerId = "483A4B3C-018A-49B6-8662-B0C36EA930DB";
shapes = (
{
closed = 1;
nodes = (
(400,0,l),
(400,100,l),
(150,100,l),
(150,300,l),
(300,300,l),
(300,400,l),
(400,400,l),
(400,600,l),
(300,600,l),
(300,700,l),
(50,700,l),
(50,600,l),
(300,600,l),
(300,400,l),
(150,400,l),
(150,300,l),
(50,300,l),
(50,0,l)
);
},
{
alignment = -1;
pos = (50,300);
ref = pixel.d1;
},
{
alignment = -1;
pos = (300,300);
ref = pixel.d3;
},
{
alignment = -1;
pos = (300,600);
ref = pixel.d2;
}
);
width = 450;
},
{
layerId = "209E5C5C-CC14-4F9C-9A7A-B403B00EF8BC";
shapes = (
{
closed = 1;
nodes = (
(400,0,l),
(400,25,l),
(150,25,l),
(150,350,l),
(300,350,l),
(300,450,l),
(400,450,l),
(400,600,l),
(300,600,l),
(300,700,l),
(50,700,l),
(50,675,l),
(300,675,l),
(300,375,l),
(150,375,l),
(150,275,l),
(50,275,l),
(50,0,l)
);
},
{
alignment = -1;
pos = (50,275);
ref = pixel.d1;
},
{
alignment = -1;
pos = (300,350);
ref = pixel.d3;
},
{
alignment = -1;
pos = (300,600);
ref = pixel.d2;
}
);
width = 450;
}
);
unicode = 50;
},
{
glyphname = five;
layers = (
{
layerId = "483A4B3C-018A-49B6-8662-B0C36EA930DB";
shapes = (
{
closed = 1;
nodes = (
(300,0,l),
(300,100,l),
(400,100,l),
(400,300,l),
(300,300,l),
(300,400,l),
(150,400,l),
(150,600,l),
(400,600,l),
(400,700,l),
(150,700,l),
(150,600,l),
(50,600,l),
(50,400,l),
(150,400,l),
(150,300,l),
(300,300,l),
(300,100,l),
(50,100,l),
(50,0,l)
);
},
{
alignment = -1;
pos = (50,600);
ref = pixel;
},
{
alignment = -1;
pos = (300,300);
ref = pixel.d2;
},
{
alignment = -1;
pos = (50,300);
ref = pixel;
},
{
alignment = -1;
pos = (300,0);
ref = pixel.d3;
}
);
width = 450;
},
{
layerId = "209E5C5C-CC14-4F9C-9A7A-B403B00EF8BC";
shapes = (
{
closed = 1;
nodes = (
(300,0,l),
(300,100,l),
(400,100,l),
(400,275,l),
(300,275,l),
(300,375,l),
(150,375,l),
(150,675,l),
(400,675,l),
(400,700,l),
(150,700,l),
(150,600,l),
(50,600,l),
(50,450,l),
(150,450,l),
(150,350,l),
(300,350,l),
(300,25,l),
(50,25,l),
(50,0,l)
);
},
{
alignment = -1;
pos = (50,600);
ref = pixel;
},
{
alignment = -1;
pos = (300,275);
ref = pixel.d2;
},
{
alignment = -1;
pos = (50,350);
ref = pixel;
},
{
alignment = -1;
pos = (300,0);
ref = pixel.d3;
}
);
width = 450;
}
);
unicode = 53;
},
{
glyphname = seven;
layers = (
{
layerId = "483A4B3C-018A-49B6-8662-B0C36EA930DB";
shapes = (
{
alignment = -1;
pos = (25,600);
ref = pixel.hair.top;
},
{
closed = 1;
nodes = (
(250,600,l),
(250,700,l),
(125,700,l),
(125,600,l)
);
},
{
alignment = -1;
pos = (250,600);
ref = pixel;
},
{
alignment = -1;
pos = (250,500);
ref = pixel;
},
{
alignment = -1;
pos = (250,400);
ref = pixel;
},
{
alignment = -1;
pos = (250,300);
ref = pixel;
},
{
alignment = -1;
pos = (250,200);
ref = pixel;
},
{
alignment = -1;
pos = (250,100);
ref = pixel;
},
{
alignment = -1;
pos = (250,0);
ref = pixel;
}
);
width = 400;
},
{
layerId = "209E5C5C-CC14-4F9C-9A7A-B403B00EF8BC";
shapes = (
{
alignment = -1;
pos = (25,600);
ref = pixel.hair.top;
},
{
closed = 1;
nodes = (
(250,675,l),
(250,700,l),
(125,700,l),
(125,675,l)
);
},
{
alignment = -1;
pos = (250,600);
ref = pixel;
},
{
alignment = -1;
pos = (250,500);
ref = pixel;
},
{
alignment = -1;
pos = (250,400);
ref = pixel;
},
{
alignment = -1;
pos = (250,300);
ref = pixel;
},
{
alignment = -1;
pos = (250,200);
ref = pixel;
},
{
alignment = -1;
pos = (250,100);
ref = pixel;
},
{
alignment = -1;
pos = (250,0);
ref = pixel;
}
);
width = 400;
}
);
unicode = 55;
},
{
glyphname = slash;
layers = (
{
layerId = "483A4B3C-018A-49B6-8662-B0C36EA930DB";
shapes = (
{
closed = 1;
nodes = (
(150,-100,l),
(350,800,l),
(250,800,l),
(50,-100,l)
);
}
);
width = 400;
},
{
layerId = "209E5C5C-CC14-4F9C-9A7A-B403B00EF8BC";
shapes = (
{
closed = 1;
nodes = (
(113,-100,l),
(313,800,l),
(288,800,l),
(88,-100,l)
);
}
);
width = 400;
}
);
unicode = 47;
},
{
glyphname = rightArrow;
layers = (
{
background = {
shapes = (
{
closed = 0;
nodes = (
(594,356,l),
(381,569,l),
(306,494,l),
(519,281,l)
);
},
{
closed = 0;
nodes = (
(519,419,l),
(306,206,l),
(381,131,l),
(594,344,l)
);
}
);
};
layerId = "483A4B3C-018A-49B6-8662-B0C36EA930DB";
shapes = (
{
closed = 1;
nodes = (
(538,300,l),
(456,344,l),
(294,188,l),
(363,119,l),
(588,350,l),
(363,581,l),
(294,513,l),
(456,356,l),
(538,400,l),
(50,400,l),
(50,300,l)
);
}
);
width = 600;
},
{
layerId = "209E5C5C-CC14-4F9C-9A7A-B403B00EF8BC";
shapes = (
{
closed = 1;
nodes = (
(538,338,l),
(544,344,l),
(363,156,l),
(381,138,l),
(588,350,l),
(381,563,l),
(363,544,l),
(544,356,l),
(538,363,l),
(50,363,l),
(50,338,l)
);
}
);
width = 600;
}
);
unicode = 8594;
},
{
glyphname = pixel;
layers = (
{
layerId = "483A4B3C-018A-49B6-8662-B0C36EA930DB";
shapes = (
{
closed = 1;
nodes = (
(100,0,l),
(100,100,l),
(0,100,l),
(0,0,l)
);
}
);
width = 100;
},
{
layerId = "209E5C5C-CC14-4F9C-9A7A-B403B00EF8BC";
shapes = (
{
closed = 1;
nodes = (
(100,0,l),
(100,100,l),
(0,100,l),
(0,0,l)
);
}
);
width = 100;
}
);
},
{
glyphname = pixel.d1;
layers = (
{
layerId = "483A4B3C-018A-49B6-8662-B0C36EA930DB";
shapes = (
{
closed = 1;
nodes = (
(100,0,l),
(100,100,l),
(0,100,l),
(0,100,l),
(0,0,l)
);
}
);
width = 100;
},
{
associatedMasterId = "483A4B3C-018A-49B6-8662-B0C36EA930DB";
attr = {
coordinates = (
400,
100,
100,
100
);
};
layerId = "4DE05299-20A4-480A-8AB3-66A695A4F58A";
name = "8. Jul 23 at 16:48";
shapes = (
{
closed = 1;
nodes = (
(100,0,l),
(100,100,l),
(50,100,l),
(0,50,l),
(0,0,l)
);
}
);
width = 100;
},
{
layerId = "209E5C5C-CC14-4F9C-9A7A-B403B00EF8BC";
shapes = (
{
closed = 1;
nodes = (
(100,0,l),
(100,100,l),
(0,100,l),
(0,100,l),
(0,0,l)
);
}
);
width = 100;
},
{
associatedMasterId = "209E5C5C-CC14-4F9C-9A7A-B403B00EF8BC";
attr = {
coordinates = (
400,
100,
100,
25
);
};
layerId = "462A328D-26E0-4294-9CD9-B2C212DEA134";
name = "8. Jul 23 at 16:48";
shapes = (
{
closed = 1;
nodes = (
(100,0,l),
(100,100,l),
(50,100,l),
(0,50,l),
(0,0,l)
);
}
);
width = 100;
}
);
},
{
glyphname = pixel.d2;
layers = (
{
layerId = "483A4B3C-018A-49B6-8662-B0C36EA930DB";
shapes = (
{
closed = 1;
nodes = (
(100,0,l),
(100,100,l),
(100,100,l),
(0,100,l),
(0,0,l)
);
}
);
width = 100;
},
{
associatedMasterId = "483A4B3C-018A-49B6-8662-B0C36EA930DB";
attr = {
coordinates = (
400,
100,
100,
100
);
};
layerId = "1E403FD6-9AA7-4E32-929C-CF0825A6CE63";
name = "8. Jul 23 at 16:49";
shapes = (
{
closed = 1;
nodes = (
(100,0,l),
(100,50,l),
(50,100,l),
(0,100,l),
(0,0,l)
);
}
);
width = 100;
},
{
layerId = "209E5C5C-CC14-4F9C-9A7A-B403B00EF8BC";
shapes = (
{
closed = 1;
nodes = (
(100,0,l),
(100,100,l),
(100,100,l),
(0,100,l),
(0,0,l)
);
}
);
width = 100;
},
{
associatedMasterId = "209E5C5C-CC14-4F9C-9A7A-B403B00EF8BC";
attr = {
coordinates = (
400,
100,
100,
25
);
};
layerId = "4753FD4B-D922-4A08-92E0-529BA2653B36";
name = "8. Jul 23 at 16:49";
shapes = (
{
closed = 1;
nodes = (
(100,0,l),
(100,50,l),
(50,100,l),
(0,100,l),
(0,0,l)
);
}
);
width = 100;
}
);
},
{
glyphname = pixel.d3;
layers = (
{
layerId = "483A4B3C-018A-49B6-8662-B0C36EA930DB";
shapes = (
{
closed = 1;
nodes = (
(100,0,l),
(100,0,l),
(100,100,l),
(0,100,l),
(0,0,l)
);
}
);
width = 100;
},
{
associatedMasterId = "483A4B3C-018A-49B6-8662-B0C36EA930DB";
attr = {
coordinates = (
400,
100,
100,
100
);
};
layerId = "01E0EEBE-473D-4A63-8130-8E245BA46CDE";
name = "8. Jul 23 at 16:50";
shapes = (
{
closed = 1;
nodes = (
(50,0,l),
(100,50,l),
(100,100,l),
(0,100,l),
(0,0,l)
);
}
);
width = 100;
},
{
layerId = "209E5C5C-CC14-4F9C-9A7A-B403B00EF8BC";
shapes = (
{
closed = 1;
nodes = (
(100,0,l),
(100,0,l),
(100,100,l),
(0,100,l),
(0,0,l)
);
}
);
width = 100;
},
{
associatedMasterId = "209E5C5C-CC14-4F9C-9A7A-B403B00EF8BC";
attr = {
coordinates = (
400,
100,
100,
25
);
};
layerId = "3512742D-F876-4263-9F9C-54DC4A50590F";
name = "8. Jul 23 at 16:50";
shapes = (
{
closed = 1;
nodes = (
(50,0,l),
(100,50,l),
(100,100,l),
(0,100,l),
(0,0,l)
);
}
);
width = 100;
}
);
},
{
glyphname = pixel.d4;
layers = (
{
layerId = "483A4B3C-018A-49B6-8662-B0C36EA930DB";
shapes = (
{
closed = 1;
nodes = (
(0,0,l),
(100,0,l),
(100,100,l),
(0,100,l),
(0,0,l)
);
}
);
width = 100;
},
{
associatedMasterId = "483A4B3C-018A-49B6-8662-B0C36EA930DB";
attr = {
coordinates = (
400,
100,
100,
100
);
};
layerId = "52B9E3C9-3F15-470F-BBF0-A7818E2B0D76";
name = "8. Jul 23 at 16:53";
shapes = (
{
closed = 1;
nodes = (
(50,0,l),
(100,0,l),
(100,100,l),
(0,100,l),
(0,50,l)
);
}
);
width = 100;
},
{
layerId = "209E5C5C-CC14-4F9C-9A7A-B403B00EF8BC";
shapes = (
{
closed = 1;
nodes = (
(0,0,l),
(100,0,l),
(100,100,l),
(0,100,l),
(0,0,l)
);
}
);
width = 100;
},
{
associatedMasterId = "209E5C5C-CC14-4F9C-9A7A-B403B00EF8BC";
attr = {
coordinates = (
400,
100,
100,
25
);
};
layerId = "4BC5E157-D0FD-401B-946D-8736EFCEF843";
name = "8. Jul 23 at 16:53";
shapes = (
{
closed = 1;
nodes = (
(50,0,l),
(100,0,l),
(100,100,l),
(0,100,l),
(0,50,l)
);
}
);
width = 100;
}
);
},
{
glyphname = pixel.hair;
layers = (
{
layerId = "483A4B3C-018A-49B6-8662-B0C36EA930DB";
shapes = (
{
closed = 1;
nodes = (
(100,0,l),
(100,100,l),
(0,100,l),
(0,0,l)
);
}
);
width = 100;
},
{
layerId = "209E5C5C-CC14-4F9C-9A7A-B403B00EF8BC";
shapes = (
{
closed = 1;
nodes = (
(100,50,l),
(100,75,l),
(0,75,l),
(0,50,l)
);
}
);
width = 100;
}
);
},
{
glyphname = pixel.w1;
layers = (
{
layerId = "483A4B3C-018A-49B6-8662-B0C36EA930DB";
shapes = (
{
closed = 1;
nodes = (
(100,0,l),
(100,100,l),
(50,100,l),
(0,50,l),
(100,50,l),
(50,100,l),
(0,100,l),
(0,0,l)
);
}
);
width = 100;
},
{
associatedMasterId = "483A4B3C-018A-49B6-8662-B0C36EA930DB";
attr = {
coordinates = (
400,
100,
100,
100
);
};
layerId = "AE9581F9-FB6B-40F1-92B2-6E5DDD6B2E97";
name = "8. Jul 23 at 16:54";
shapes = (
{
closed = 1;
nodes = (
(100,0,l),
(100,100,l),
(100,100,l),
(50,50,l),
(50,50,l),
(0,100,l),
(0,100,l),
(0,0,l)
);
}
);
width = 100;
},
{
layerId = "209E5C5C-CC14-4F9C-9A7A-B403B00EF8BC";
shapes = (
{
closed = 1;
nodes = (
(100,0,l),
(100,100,l),
(50,100,l),
(0,50,l),
(100,50,l),
(50,100,l),
(0,100,l),
(0,0,l)
);
}
);
width = 100;
},
{
associatedMasterId = "209E5C5C-CC14-4F9C-9A7A-B403B00EF8BC";
attr = {
coordinates = (
400,
100,
100,
25
);
};
layerId = "EA9F7502-B392-4FAE-A140-2BC9E7D94F14";
name = "8. Jul 23 at 16:54";
shapes = (
{
closed = 1;
nodes = (
(100,0,l),
(100,100,l),
(100,100,l),
(50,50,l),
(50,50,l),
(0,100,l),
(0,100,l),
(0,0,l)
);
}
);
width = 100;
}
);
},
{
glyphname = pixel.w2;
layers = (
{
layerId = "483A4B3C-018A-49B6-8662-B0C36EA930DB";
shapes = (
{
closed = 1;
nodes = (
(100,0,l),
(100,50,l),
(50,100,l),
(50,0,l),
(100,50,l),
(100,100,l),
(0,100,l),
(0,0,l)
);
}
);
width = 100;
},
{
associatedMasterId = "483A4B3C-018A-49B6-8662-B0C36EA930DB";
attr = {
coordinates = (
400,
100,
100,
100
);
};
layerId = "324D3203-6558-4CE2-A570-7A0F93E5C455";
name = "8. Jul 23 at 16:54";
shapes = (
{
closed = 1;
nodes = (
(100,0,l),
(100,0,l),
(50,50,l),
(50,50,l),
(100,100,l),
(100,100,l),
(0,100,l),
(0,0,l)
);
}
);
width = 100;
},
{
layerId = "209E5C5C-CC14-4F9C-9A7A-B403B00EF8BC";
shapes = (
{
closed = 1;
nodes = (
(100,0,l),
(100,50,l),
(50,100,l),
(50,0,l),
(100,50,l),
(100,100,l),
(0,100,l),
(0,0,l)
);
}
);
width = 100;
},
{
associatedMasterId = "209E5C5C-CC14-4F9C-9A7A-B403B00EF8BC";
attr = {
coordinates = (
400,
100,
100,
25
);
};
layerId = "57FA6246-461F-47B4-8A40-56F645A954DE";
name = "8. Jul 23 at 16:54";
shapes = (
{
closed = 1;
nodes = (
(100,0,l),
(100,0,l),
(50,50,l),
(50,50,l),
(100,100,l),
(100,100,l),
(0,100,l),
(0,0,l)
);
}
);
width = 100;
}
);
},
{
glyphname = pixel.w3;
layers = (
{
layerId = "483A4B3C-018A-49B6-8662-B0C36EA930DB";
shapes = (
{
closed = 1;
nodes = (
(50,0,l),
(100,50,l),
(0,50,l),
(50,0,l),
(100,0,l),
(100,100,l),
(0,100,l),
(0,0,l)
);
}
);
width = 100;
},
{
associatedMasterId = "483A4B3C-018A-49B6-8662-B0C36EA930DB";
attr = {
coordinates = (
400,
100,
100,
100
);
};
layerId = "8E2727AE-C342-45F7-89B7-21DAC1F055C1";
name = "8. Jul 23 at 16:54";
shapes = (
{
closed = 1;
nodes = (
(0,0,l),
(50,50,l),
(50,50,l),
(100,0,l),
(100,0,l),
(100,100,l),
(0,100,l),
(0,0,l)
);
}
);
width = 100;
},
{
layerId = "209E5C5C-CC14-4F9C-9A7A-B403B00EF8BC";
shapes = (
{
closed = 1;
nodes = (
(50,0,l),
(100,50,l),
(0,50,l),
(50,0,l),
(100,0,l),
(100,100,l),
(0,100,l),
(0,0,l)
);
}
);
width = 100;
},
{
associatedMasterId = "209E5C5C-CC14-4F9C-9A7A-B403B00EF8BC";
attr = {
coordinates = (
400,
100,
100,
25
);
};
layerId = "81F91F18-4F5C-4D99-AA6A-782C035FF3FB";
name = "8. Jul 23 at 16:54";
shapes = (
{
closed = 1;
nodes = (
(0,0,l),
(50,50,l),
(50,50,l),
(100,0,l),
(100,0,l),
(100,100,l),
(0,100,l),
(0,0,l)
);
}
);
width = 100;
}
);
},
{
glyphname = pixel.w4;
layers = (
{
layerId = "483A4B3C-018A-49B6-8662-B0C36EA930DB";
shapes = (
{
closed = 1;
nodes = (
(100,0,l),
(100,100,l),
(0,100,l),
(0,50,l),
(50,0,l),
(50,100,l),
(0,50,l),
(0,0,l)
);
}
);
width = 100;
},
{
associatedMasterId = "483A4B3C-018A-49B6-8662-B0C36EA930DB";
attr = {
coordinates = (
400,
100,
100,
100
);
};
layerId = "05C286B2-96EB-498D-B965-3778960543EB";
name = "8. Jul 23 at 16:54";
shapes = (
{
closed = 1;
nodes = (
(100,0,l),
(100,100,l),
(0,100,l),
(0,100,l),
(50,50,l),
(50,50,l),
(0,0,l),
(0,0,l)
);
}
);
width = 100;
},
{
layerId = "209E5C5C-CC14-4F9C-9A7A-B403B00EF8BC";
shapes = (
{
closed = 1;
nodes = (
(100,0,l),
(100,100,l),
(0,100,l),
(0,50,l),
(50,0,l),
(50,100,l),
(0,50,l),
(0,0,l)
);
}
);
width = 100;
},
{
associatedMasterId = "209E5C5C-CC14-4F9C-9A7A-B403B00EF8BC";
attr = {
coordinates = (
400,
100,
100,
25
);
};
layerId = "CE170E9E-8641-43D1-8488-462B4FD54FA9";
name = "8. Jul 23 at 16:54";
shapes = (
{
closed = 1;
nodes = (
(100,0,l),
(100,100,l),
(0,100,l),
(0,100,l),
(50,50,l),
(50,50,l),
(0,0,l),
(0,0,l)
);
}
);
width = 100;
}
);
},
{
glyphname = pixel.hair.accent;
layers = (
{
layerId = "483A4B3C-018A-49B6-8662-B0C36EA930DB";
shapes = (
{
closed = 1;
nodes = (
(100,0,l),
(100,100,l),
(0,100,l),
(0,0,l)
);
}
);
width = 100;
},
{
layerId = "209E5C5C-CC14-4F9C-9A7A-B403B00EF8BC";
shapes = (
{
closed = 1;
nodes = (
(100,25,l),
(100,50,l),
(0,50,l),
(0,25,l)
);
}
);
width = 100;
}
);
},
{
glyphname = pixel.hair.bottom;
layers = (
{
layerId = "483A4B3C-018A-49B6-8662-B0C36EA930DB";
shapes = (
{
closed = 1;
nodes = (
(100,0,l),
(100,100,l),
(0,100,l),
(0,0,l)
);
}
);
width = 100;
},
{
layerId = "209E5C5C-CC14-4F9C-9A7A-B403B00EF8BC";
shapes = (
{
closed = 1;
nodes = (
(100,0,l),
(100,25,l),
(0,25,l),
(0,0,l)
);
}
);
width = 100;
}
);
},
{
glyphname = pixel.hair.top;
layers = (
{
layerId = "483A4B3C-018A-49B6-8662-B0C36EA930DB";
shapes = (
{
closed = 1;
nodes = (
(100,0,l),
(100,100,l),
(0,100,l),
(0,0,l)
);
}
